<svg width="392" height="240" fill="none" xmlns="http://www.w3.org/2000/svg"><g clip-path="url(#a)" fill="#fff"><path d="M193.227 72.319 173 1.672h-25.236L127.537 72.32h19.344l3.633-15.35h19.049l3.731 15.35h19.933ZM159.94 17.415h.197l5.695 24.008h-11.685l5.793-24.008Zm81.302 28.83c0 7.576-4.32 11.708-11.194 11.708-6.971 0-10.408-4.133-10.408-11.709V1.672h-19.245v40.833c0 19.777 7.56 30.994 29.26 30.994 21.701 0 30.735-11.217 30.735-30.994V1.672h-19.148v44.572Zm65.296 26.074V17.317h17.675V1.672h-54.496v15.645h17.674v55.002h19.147Zm53.416 1.18c21.111 0 31.716-15.25 31.716-36.504 0-15.742-6.874-36.503-31.716-36.503-24.842 0-31.716 20.76-31.716 36.503 0 21.253 10.605 36.504 31.716 36.504Zm0-15.054c-9.132 0-12.568-7.97-12.568-21.45 0-13.676 3.633-21.843 12.568-21.843 8.935 0 12.569 8.167 12.569 21.843 0 13.48-3.437 21.45-12.569 21.45ZM74.62 155.991V85.345H50.072L37.308 131.59h-.197L24.936 85.345H.093v70.646h17.674v-44.67h.197l11.685 44.67h15.416l11.684-44.67h.197v44.67H74.62Zm74.429 0-20.228-70.646h-25.235L83.359 155.99h19.344l3.633-15.349h19.049l3.731 15.349h19.933Zm-33.287-54.903h.196l5.695 24.008h-11.684l5.793-24.008Zm68.242 54.903V100.99h17.674V85.345h-54.496v15.645h17.675v55.001h19.147Zm53.415 1.181c21.112 0 31.716-15.251 31.716-36.504 0-15.743-6.873-36.504-31.716-36.504-24.842 0-31.715 20.761-31.715 36.504 0 21.253 10.605 36.504 31.715 36.504Zm0-15.054c-9.131 0-12.568-7.97-12.568-21.45 0-13.677 3.633-21.843 12.568-21.843 8.936 0 12.569 8.166 12.569 21.843 0 13.48-3.437 21.45-12.569 21.45ZM183.361 239.664v-70.646h-17.773v38.767h-.196l-21.013-38.767h-21.406v70.646h17.773v-41.325h.196l23.468 41.325h18.951Zm64.708 0V224.02h-30.931v-12.89h21.504v-15.153h-21.504v-11.315h30.341v-15.644h-49.488v70.646h50.078Zm71.286 0v-70.646h-17.773v38.767h-.196l-21.013-38.767h-21.406v70.646h17.773v-41.325h.196l23.468 41.325h18.951Z"/></g><defs><clipPath id="a"><path fill="#fff" d="M0 0h391.948v240H0z"/></clipPath></defs></svg>